<svg id="Layer_1" data-name="Layer 1" xmlns="http://www.w3.org/2000/svg" xmlns:xlink="http://www.w3.org/1999/xlink" viewBox="0 0 4250.39 1314.27"><defs><style>.cls-1{fill:url(#radial-gradient);}.cls-2{fill:#50b065;}.cls-3{fill:#50af65;}</style><radialGradient id="radial-gradient" cx="657.18" cy="-105.53" r="1304.97" gradientUnits="userSpaceOnUse"><stop offset="0" stop-color="#39fd9e"/><stop offset="0.41" stop-color="#1ecc78"/><stop offset="1" stop-color="#0a9753"/></radialGradient></defs><g id="logo"><path class="cls-1" d="M1314.05,584.7q-.75-41.69-3.39-83.32c-1.57-24.74-3.76-49.47-6.77-74.07-7.57-61.8-21.1-122.15-47.87-178.79C1209,148.92,1132.38,81.7,1029.51,43.75a560,560,0,0,0-103.86-27c-20.21-3.29-40.47-6.32-60.81-8.66-17.59-2-35.3-3.17-53-4.2-25-1.44-50-2.43-74.94-3.57C733.28.11,729.64.1,726,.09c-38.08,0-76.16-.2-114.24,0C588.88.23,566,.62,543.13,1.51c-20.92.82-41.85,2-62.71,3.84-46.58,4-92.87,10.13-138.31,21.6-56,14.13-108.74,35.6-155.89,69.5C123.74,141.37,79,200.15,50.46,271.41a550.13,550.13,0,0,0-31.87,116c-4.22,25.71-7.52,51.6-10.14,77.52-2.26,22.32-3.23,44.78-4.28,67.21C3,557.72,2.35,583.38,1.37,609A86.91,86.91,0,0,1,0,618.45v77A58.66,58.66,0,0,1,1.29,703c.56,12,.89,23.94,1.42,35.9,1.36,31.19,2.09,62.42,4.34,93.54,3.58,49.5,10.26,98.59,22.77,146.74,13.37,51.5,33.2,100.16,63.66,144.07,47.18,68,110.4,115.33,187.59,144.4A553.37,553.37,0,0,0,388.52,1296c20,3.21,40,6.33,60.16,8.62,18,2.05,36.16,3.34,54.28,4.19,36.94,1.73,73.9,2.92,110.86,4.4a75.3,75.3,0,0,1,7.55,1.06h74.46a75.75,75.75,0,0,1,8.18-1.1c23.52-.7,47-1,70.55-2,18.57-.75,37.12-2.1,55.66-3.46,16.18-1.2,32.39-2.31,48.48-4.33,18.82-2.36,37.57-5.44,56.28-8.61a548,548,0,0,0,93.32-24.5c69.12-24.77,128.17-64.12,175.1-121,33.64-40.78,57.28-86.94,73.61-137,11.57-35.45,19.26-71.76,24.63-108.62C1307,867,1310,830.18,1312,793.23c2-37.19,2.4-74.4,2.32-111.62C1314.21,649.31,1314.64,617,1314.05,584.7ZM1049.21,973.28,946,1032.9l-1.69,1-92.54,53.43a8.3,8.3,0,0,1-12.45-7.19v-228L884.07,878l8.56,4.92,35-60.62,8.6-14.89.15-.31a315.08,315.08,0,0,0,38.12-150.79c0-180.86-151.47-326.33-334.43-316.55C476,348.5,344.71,483.74,340.55,648.05c-4,158,107.64,290.64,256.33,319.4V716.88H489.72a14,14,0,0,1-14-14V609.69a14,14,0,0,1,14-14H825.23a14,14,0,0,1,14,14v93.16a14,14,0,0,1-14,14H718.07v363.6a14,14,0,0,1-14,14H657.5a432.89,432.89,0,0,1-60.62-4.22c-214.62-29.66-379.56-214.73-377.61-437.95,2.09-237.82,196.3-432.12,434.12-434.3,234.61-2.15,427.14,180.1,441.43,410.63.58,9.14.88,18.31.88,27.6a436.14,436.14,0,0,1-52.9,208.91l0,.07-11,19.09-34.17,59.15Z" transform="translate(0 0)"/></g><polygon class="cls-2" points="1596.52 370.96 1596.52 490.3 1790.56 490.3 1790.56 1028.47 1916 1028.47 1916 490.02 2110.06 490.02 2110.06 370.96 1596.52 370.96"/><path class="cls-3" d="M2594.75,587.84c0-54.32,0-54.32-53.87-54.32-49.82,0-52.71,56.17-54.65,54.31-37.27-35.75-90.62-64-143.76-65.73-171-5.53-297.17,162.39-248,330.45,53.8,183.84,275.33,239,391.76,121.72,1.84-1.85,9.32,49.37,63.94,49.36,5.22,0,10.55-.71,15.63.12,23.5,3.82,29.69-5.78,29.5-29.16C2594.18,859,2594.75,723.42,2594.75,587.84ZM2342.83,922.51c-80.77.23-139.18-60.34-139.12-144.26.06-81.34,59.11-143.07,137.24-143.49,80.08-.43,140.58,61,140.9,143.1C2482.18,861.15,2423.42,922.28,2342.83,922.51Z" transform="translate(0 0)"/><polyline class="cls-3" points="2486.23 587.83 2486.23 531.3 2595.3 531.3 2595.3 1026.98 2486.23 1026.98"/><path class="cls-3" d="M3614.79,908c-64.9,33.34-141.28,19.48-184.92-33.57A151.84,151.84,0,0,1,3399,743.78q-59.39-2.91-118.72-7.13a279.1,279.1,0,0,0,2.38,98.28c21.64,107.66,108.42,184.78,225,199.91l50.71.11a262,262,0,0,0,106.77-32.68c51-28.57,50.94-28.67,17.56-76.9C3656,886.85,3656,886.85,3614.79,908Z" transform="translate(0 0)"/><path class="cls-2" d="M3614,1023.62c36.28-9.84,101.69-51.75,101.69-51.75L3655,886.37l-34.87,19" transform="translate(0 0)"/><path class="cls-3" d="M3614.79,651.19c-64.9-33.35-141.28-19.48-184.92,33.56A151.86,151.86,0,0,0,3399,815.44q-59.39,2.91-118.72,7.13a279.1,279.1,0,0,1,2.38-98.28c21.64-107.66,108.42-184.78,225-199.9l50.71-.11A261.94,261.94,0,0,1,3665.13,557c51,28.57,50.94,28.67,17.56,76.9C3656,672.37,3656,672.37,3614.79,651.19Z" transform="translate(0 0)"/><path class="cls-2" d="M3614,535.6c36.28,9.84,101.69,51.75,101.69,51.75L3655,672.85l-34.87-19" transform="translate(0 0)"/><path class="cls-3" d="M4249.84,587.84c0-54.32,0-54.32-53.87-54.32-49.82,0-52.71,56.17-54.65,54.31-37.27-35.75-90.62-64-143.76-65.73-171-5.53-297.17,162.39-248,330.45,53.79,183.84,275.32,239,391.76,121.72,1.83-1.85,9.32,49.37,63.94,49.36,5.21,0,10.54-.71,15.62.12,23.51,3.82,29.7-5.78,29.51-29.16C4249.27,859,4249.84,723.42,4249.84,587.84ZM3997.92,922.51c-80.78.23-139.18-60.34-139.12-144.26.06-81.34,59.11-143.07,137.23-143.49,80.09-.43,140.59,61,140.91,143.1C4137.26,861.15,4078.51,922.28,3997.92,922.51Z" transform="translate(0 0)"/><polyline class="cls-3" points="4141.32 587.83 4141.32 531.3 4250.39 531.3 4250.39 1026.98 4141.32 1026.98"/><path class="cls-3" d="M2840.31,589.07c52.1-48.53,112.39-73.11,183-66.52,99.32,9.27,166.84,83.75,169.77,191.4,2.62,96-.37,192.16.28,288.22-.11,16.22-3.64,22.41-20.43,21.62-25-1.17-50.19-1.61-75.13.12-20.3,1.41-23.89-5.61-23.66-23.95.89-72,0-145.37,0-217.42,0-8.35.09-16.7,0-25.06-1-81.34-38.4-124.36-108.07-124.46-71.28-.1-121.28,51.49-121.72,126.63-.47,78.31-1,156.64.46,234.93.46,23.54-6,31.69-29.55,29.26-28.84-3-66.41,11.7-84.66-5.51-18.56-17.5-5.52-55.33-5.67-84.17-.68-124.25.19-248.52-.76-372.77-.16-21.27,4.69-31.75,27.36-28.06,3.06.49,6.26,0,9.39.06,19.82.24,41.32-4.3,59,1.94C2842.48,543.26,2823.65,572.41,2840.31,589.07Z" transform="translate(0 0)"/><polyline class="cls-2" points="2844.83 792.02 2844.83 1026.98 2721.08 1026.98 2721.08 531.3 2844.83 531.3 2844.83 585.51"/><polyline class="cls-3" points="3074.32 964.48 3074.01 1026.86 3193.26 1026.86 3193.26 978.1"/><line class="cls-3" x1="3193.26" y1="1026.86" x2="3194.18" y2="813.45"/></svg>