<svg id="Layer_1" data-name="Layer 1" xmlns="http://www.w3.org/2000/svg" xmlns:xlink="http://www.w3.org/1999/xlink" viewBox="0 0 500 499.97"><defs><style>.cls-1{fill:#fff;}.cls-2{fill:url(#radial-gradient);}</style><radialGradient id="radial-gradient" cx="250" cy="-40.13" r="496.42" gradientUnits="userSpaceOnUse"><stop offset="0" stop-color="#39fd9e"/><stop offset="0.41" stop-color="#1ecc78"/><stop offset="1" stop-color="#0a9753"/></radialGradient></defs><rect class="cls-1" x="62.84" y="74.68" width="368.47" height="353.22"/><g id="logo"><path class="cls-2" d="M499.88,222.44q-.28-15.85-1.29-31.69c-.6-9.41-1.43-18.82-2.57-28.18-2.88-23.51-8-46.47-18.21-68-17.91-37.89-47-63.46-86.17-77.9A213.18,213.18,0,0,0,352.13,6.38C344.44,5.12,336.73,4,329,3.08c-6.7-.77-13.43-1.21-20.16-1.6-9.5-.55-19-.92-28.51-1.36C279,.06,277.56.05,276.18.05c-14.49,0-29-.07-43.46,0-8.7,0-17.41.19-26.11.53-8,.31-15.92.77-23.85,1.46C165,3.59,147.43,5.9,130.14,10.27c-21.3,5.37-41.36,13.54-59.3,26.44C47.07,53.79,30.07,76.16,19.2,103.27a208.49,208.49,0,0,0-12.13,44.1c-1.6,9.78-2.86,19.63-3.86,29.49-.85,8.49-1.23,17-1.63,25.57C1.13,212.18.89,221.94.52,231.7A31.19,31.19,0,0,1,0,235.28v29.3a21.78,21.78,0,0,1,.49,2.85c.21,4.56.34,9.11.54,13.66.52,11.87.8,23.75,1.65,35.59a311,311,0,0,0,8.66,55.82c5.09,19.59,12.63,38.1,24.22,54.8,17.95,25.88,42,43.87,71.36,54.93A210,210,0,0,0,147.8,493c7.61,1.22,15.23,2.41,22.88,3.28,6.86.78,13.76,1.27,20.65,1.59,14,.66,28.12,1.12,42.17,1.68a27.89,27.89,0,0,1,2.87.4H264.7a30.13,30.13,0,0,1,3.11-.42c8.95-.26,17.9-.39,26.84-.75,7.07-.29,14.12-.8,21.17-1.32,6.16-.46,12.33-.88,18.45-1.65,7.16-.9,14.29-2.07,21.41-3.27a209.36,209.36,0,0,0,35.5-9.32c26.29-9.43,48.75-24.4,66.61-46,12.8-15.52,21.79-33.08,28-52.13a247.62,247.62,0,0,0,9.37-41.32c2-13.93,3.18-27.94,3.93-42s.91-28.3.88-42.46C499.94,247,500.1,234.73,499.88,222.44ZM399.13,370.26l-39.28,22.68-.64.38L324,413.65a3.16,3.16,0,0,1-4.73-2.74V324.16l17,9.84,3.26,1.87,13.31-23.06,3.27-5.66.06-.12A120.62,120.62,0,0,0,243.5,129.25C181.06,132.59,131.13,184,129.55,246.54A120.6,120.6,0,0,0,227.06,368V272.73H186.3a5.34,5.34,0,0,1-5.34-5.34V232a5.34,5.34,0,0,1,5.34-5.34H313.93a5.34,5.34,0,0,1,5.34,5.34v35.44a5.34,5.34,0,0,1-5.34,5.34H273.16V411a5.34,5.34,0,0,1-5.33,5.34H250.12A166.7,166.7,0,0,1,83.41,248.18C84.21,157.71,158.09,83.79,248.56,83A166.7,166.7,0,0,1,416.48,239.17c.22,3.48.34,7,.34,10.5a165.91,165.91,0,0,1-20.13,79.47v0l-4.19,7.26-13,22.5Z" transform="translate(0 -0.02)"/></g></svg>